<svg width="512" height="512" viewBox="0 0 512 512" fill="none" xmlns="http://www.w3.org/2000/svg">
<rect width="512" height="512" fill="#1E1E1E"/>
<g clip-path="url(#clip0_0_1)">
<rect width="512" height="512" fill="#93C5FD" fill-opacity="0.8"/>
<g clip-path="url(#clip1_0_1)">
<g filter="url(#filter0_d_0_1)">
<path d="M295.968 198.439C293.568 197.977 291.329 199.494 290.867 201.893L272.92 295.17C272.459 297.57 273.975 299.809 276.375 300.271C278.775 300.733 281.014 299.216 281.476 296.816L299.423 203.539C299.884 201.14 298.368 198.9 295.968 198.439Z" fill="url(#paint0_linear_0_1)"/>
<path d="M295.968 198.439C293.568 197.977 291.329 199.494 290.867 201.893L272.92 295.17C272.459 297.57 273.975 299.809 276.375 300.271C278.775 300.733 281.014 299.216 281.476 296.816L299.423 203.539C299.884 201.14 298.368 198.9 295.968 198.439Z" fill="url(#paint1_linear_0_1)"/>
<path d="M243.916 192.86C244.377 190.46 242.861 188.22 240.461 187.759C238.061 187.297 235.822 188.814 235.36 191.214L217.413 284.49C216.952 286.89 218.468 289.129 220.868 289.591C223.268 290.053 225.507 288.536 225.969 286.136L243.916 192.86Z" fill="url(#paint2_linear_0_1)"/>
<path d="M243.916 192.86C244.377 190.46 242.861 188.22 240.461 187.759C238.061 187.297 235.822 188.814 235.36 191.214L217.413 284.49C216.952 286.89 218.468 289.129 220.868 289.591C223.268 290.053 225.507 288.536 225.969 286.136L243.916 192.86Z" fill="url(#paint3_linear_0_1)"/>
<path d="M281.927 256.177L232.315 246.631C229.987 246.183 227.736 247.707 227.289 250.035L227.287 250.046C226.839 252.374 228.363 254.624 230.691 255.072L280.303 264.618C282.631 265.066 284.881 263.541 285.329 261.213L285.331 261.203C285.779 258.875 284.255 256.625 281.927 256.177Z" fill="url(#paint4_linear_0_1)"/>
<path d="M250.956 309.229L235.827 306.319C234.776 306.116 233.687 306.34 232.8 306.94C231.913 307.541 231.302 308.469 231.099 309.521L228.911 320.893L248.109 324.587L244.175 345.037L254.712 347.064C258.469 347.787 261.972 345.323 262.675 341.672L266.991 319.239C267.714 315.483 265.25 311.98 261.598 311.277L250.956 309.229Z" fill="url(#paint5_linear_0_1)"/>
<path d="M250.956 309.229L235.827 306.319C234.776 306.116 233.687 306.34 232.8 306.94C231.913 307.541 231.302 308.469 231.099 309.521L230.577 312.233L266.991 319.239C267.714 315.483 265.25 311.98 261.598 311.277L250.956 309.229Z" fill="#39244E"/>
<path d="M236.382 382.164L243.769 392.133C244.126 392.527 244.339 393.109 244.343 393.65L245.482 401.227C245.746 403.226 248.519 403.435 249.194 401.617L252.766 391.484C252.891 391.097 252.928 390.687 252.874 390.284C252.821 389.88 252.679 389.494 252.457 389.153L242.879 375.949L236.382 382.164Z" fill="url(#paint6_linear_0_1)"/>
<path d="M251.206 389.356L247.009 383.052L243.657 385.966L247.876 391.257L248.353 401.152C249.204 398.416 251.01 392.737 251.309 391.918C251.508 391.07 251.473 390.184 251.206 389.356Z" fill="url(#paint7_radial_0_1)"/>
<path d="M221.992 374.852L215.974 358.329L208.449 360.885L211.386 369.24C211.683 369.947 211.418 370.761 210.796 371.183L206.136 375.155C205.763 375.408 205.559 375.909 205.583 376.347C205.631 377.222 206.365 377.904 207.24 377.856L221.169 376.316C221.815 376.332 222.289 375.558 221.992 374.852Z" fill="url(#paint8_linear_0_1)"/>
<path d="M216.358 288.29L139.024 188.042C138.283 187.215 137.255 186.7 136.149 186.602C135.042 186.505 133.94 186.831 133.065 187.516C132.19 188.201 131.609 189.192 131.438 190.29C131.267 191.388 131.52 192.509 132.145 193.427L210.51 295.064C210.679 295.313 210.951 295.582 211.244 295.746C212.432 292.945 214.311 290.493 216.358 288.29Z" fill="url(#paint9_linear_0_1)"/>
<path d="M283.469 310.075C282.321 309.854 281.17 309.092 280.516 307.992C279.936 306.99 279.777 305.799 280.074 304.68C280.37 303.561 281.098 302.605 282.097 302.021L392.581 236.719C393.577 236.226 394.722 236.13 395.786 236.449C396.85 236.769 397.752 237.482 398.31 238.442C398.869 239.402 399.041 240.539 398.792 241.622C398.543 242.704 397.892 243.652 396.971 244.272L286.487 309.574C285.512 310.144 284.512 310.276 283.469 310.075Z" fill="url(#paint10_linear_0_1)"/>
<path d="M220.55 374.249C220.699 373.867 218.226 367.43 216.677 363.615L212.651 364.355L216.205 375.35C217.587 375.14 220.411 374.634 220.55 374.249Z" fill="url(#paint11_linear_0_1)"/>
<path d="M272.923 304.151L270.916 314.585C270.575 316.358 268.833 317.538 267.059 317.197L227.307 309.548C225.533 309.207 224.354 307.465 224.695 305.692L226.702 295.258L217.417 293.471L215.409 303.905C214.084 310.791 218.634 317.509 225.52 318.834L233.033 320.28L229.72 337.495L217.722 335.187C213.653 334.404 209.495 335.768 206.746 338.809C203.997 341.851 202.965 346.089 204.245 350.122L207.442 362.747C208.124 364.826 209.865 366.459 211.952 366.861C212.891 367.041 213.87 367.013 214.785 366.757C217.883 365.838 219.714 362.511 218.795 359.413L215.578 346.892L237.906 351.188L232.499 358.479C228.518 363.989 228.196 371.285 231.635 377.032L236.277 384.958C237.184 386.431 238.609 387.462 240.278 387.783C241.401 387.996 242.562 387.879 243.62 387.445C244.678 387.012 245.587 386.281 246.237 385.341C246.888 384.401 247.252 383.292 247.284 382.149C247.317 381.007 247.018 379.879 246.423 378.903L241.78 370.977C241.25 370.151 240.992 369.179 241.045 368.199C241.098 367.218 241.458 366.279 242.074 365.515L252.617 351.206C252.762 351.017 252.926 350.724 253.071 350.536C253.504 349.97 253.749 349.26 253.89 348.529L258.346 325.367L265.232 326.691C272.119 328.016 278.837 323.466 280.162 316.58L282.001 305.898L272.923 304.151Z" fill="#FF7C46"/>
<path d="M233.033 320.28L229.72 337.495L217.722 335.187C213.653 334.404 209.495 335.768 206.746 338.809C203.997 341.851 202.965 346.089 204.245 350.122L207.442 362.747C208.124 364.826 209.865 366.459 211.952 366.861C212.891 367.041 213.87 367.013 214.785 366.757C217.883 365.838 219.714 362.511 218.795 359.413L215.578 346.892L237.906 351.188L232.499 358.479C228.518 363.989 228.196 371.285 231.635 377.031L236.277 384.958C237.184 386.43 238.609 387.462 240.278 387.783C241.401 387.996 242.562 387.879 243.62 387.445C244.678 387.012 245.587 386.281 246.237 385.341C246.888 384.401 247.252 383.292 247.284 382.149C247.317 381.007 247.018 379.879 246.423 378.903L241.78 370.977C241.25 370.151 240.992 369.179 241.045 368.199C241.098 367.218 241.458 366.279 242.074 365.515L252.617 351.206C252.762 351.017 252.926 350.724 253.071 350.536C253.504 349.97 253.749 349.26 253.89 348.529L258.346 325.367L233.033 320.28Z" fill="#FF763E"/>
<path d="M233.033 320.28L229.72 337.495L217.722 335.187C213.653 334.404 209.495 335.768 206.746 338.809C203.997 341.851 202.965 346.089 204.245 350.122L207.442 362.747C208.124 364.826 209.865 366.459 211.952 366.861C212.891 367.041 213.87 367.013 214.785 366.757C217.883 365.838 219.714 362.511 218.795 359.413L215.578 346.892L237.906 351.188L232.499 358.479C228.518 363.989 228.196 371.285 231.635 377.031L236.277 384.958C237.184 386.43 238.609 387.462 240.278 387.783C241.401 387.996 242.562 387.879 243.62 387.445C244.678 387.012 245.587 386.281 246.237 385.341C246.888 384.401 247.252 383.292 247.284 382.149C247.317 381.007 247.018 379.879 246.423 378.903L241.78 370.977C241.25 370.151 240.992 369.179 241.045 368.199C241.098 367.218 241.458 366.279 242.074 365.515L252.617 351.206C252.762 351.017 252.926 350.724 253.071 350.536C253.504 349.97 253.749 349.26 253.89 348.529L258.346 325.367L233.033 320.28Z" fill="url(#paint12_linear_0_1)"/>
<path d="M233.033 320.28L229.72 337.495L217.722 335.187C213.653 334.404 209.495 335.768 206.746 338.809C203.997 341.851 202.965 346.089 204.245 350.122L207.442 362.747C208.124 364.826 209.865 366.459 211.952 366.861C212.891 367.041 213.87 367.013 214.785 366.757C217.883 365.838 219.714 362.511 218.795 359.413L215.578 346.892L237.906 351.188L232.499 358.479C228.518 363.989 228.196 371.285 231.635 377.031L236.277 384.958C237.184 386.43 238.609 387.462 240.278 387.783C241.401 387.996 242.562 387.879 243.62 387.445C244.678 387.012 245.587 386.281 246.237 385.341C246.888 384.401 247.252 383.292 247.284 382.149C247.317 381.007 247.018 379.879 246.423 378.903L241.78 370.977C241.25 370.151 240.992 369.179 241.045 368.199C241.098 367.218 241.458 366.279 242.074 365.515L252.617 351.206C252.762 351.017 252.926 350.724 253.071 350.536C253.504 349.97 253.749 349.26 253.89 348.529L258.346 325.367L233.033 320.28Z" fill="url(#paint13_radial_0_1)"/>
<path d="M233.033 320.28L229.72 337.495L217.722 335.187C213.653 334.404 209.495 335.768 206.746 338.809C203.997 341.851 202.965 346.089 204.245 350.122L207.442 362.747C208.124 364.826 209.865 366.459 211.952 366.861C212.891 367.041 213.87 367.013 214.785 366.757C217.883 365.838 219.714 362.511 218.795 359.413L215.578 346.892L237.906 351.188L232.499 358.479C228.518 363.989 228.196 371.285 231.635 377.031L236.277 384.958C237.184 386.43 238.609 387.462 240.278 387.783C241.401 387.996 242.562 387.879 243.62 387.445C244.678 387.012 245.587 386.281 246.237 385.341C246.888 384.401 247.252 383.292 247.284 382.149C247.317 381.007 247.018 379.879 246.423 378.903L241.78 370.977C241.25 370.151 240.992 369.179 241.045 368.199C241.098 367.218 241.458 366.279 242.074 365.515L252.617 351.206C252.762 351.017 252.926 350.724 253.071 350.536C253.504 349.97 253.749 349.26 253.89 348.529L258.346 325.367L233.033 320.28Z" fill="url(#paint14_radial_0_1)"/>
<path d="M233.033 320.28L229.72 337.495L217.722 335.187C213.653 334.404 209.495 335.768 206.746 338.809C203.997 341.851 202.965 346.089 204.245 350.122L207.442 362.747C208.124 364.826 209.865 366.459 211.952 366.861C212.891 367.041 213.87 367.013 214.785 366.757C217.883 365.838 219.714 362.511 218.795 359.413L215.578 346.892L237.906 351.188L232.499 358.479C228.518 363.989 228.196 371.285 231.635 377.031L236.277 384.958C237.184 386.43 238.609 387.462 240.278 387.783C241.401 387.996 242.562 387.879 243.62 387.445C244.678 387.012 245.587 386.281 246.237 385.341C246.888 384.401 247.252 383.292 247.284 382.149C247.317 381.007 247.018 379.879 246.423 378.903L241.78 370.977C241.25 370.151 240.992 369.179 241.045 368.199C241.098 367.218 241.458 366.279 242.074 365.515L252.617 351.206C252.762 351.017 252.926 350.724 253.071 350.536C253.504 349.97 253.749 349.26 253.89 348.529L258.346 325.367L233.033 320.28Z" fill="url(#paint15_radial_0_1)"/>
<path d="M233.033 320.28L229.72 337.495L217.722 335.187C213.653 334.404 209.495 335.768 206.746 338.809C203.997 341.851 202.965 346.089 204.245 350.122L207.442 362.747C208.124 364.826 209.865 366.459 211.952 366.861C212.891 367.041 213.87 367.013 214.785 366.757C217.883 365.838 219.714 362.511 218.795 359.413L215.578 346.892L237.906 351.188L232.499 358.479C228.518 363.989 228.196 371.285 231.635 377.031L236.277 384.958C237.184 386.43 238.609 387.462 240.278 387.783C241.401 387.996 242.562 387.879 243.62 387.445C244.678 387.012 245.587 386.281 246.237 385.341C246.888 384.401 247.252 383.292 247.284 382.149C247.317 381.007 247.018 379.879 246.423 378.903L241.78 370.977C241.25 370.151 240.992 369.179 241.045 368.199C241.098 367.218 241.458 366.279 242.074 365.515L252.617 351.206C252.762 351.017 252.926 350.724 253.071 350.536C253.504 349.97 253.749 349.26 253.89 348.529L258.346 325.367L233.033 320.28Z" fill="url(#paint16_radial_0_1)"/>
<path d="M260.173 315.872L234.819 310.994L229.72 337.495L255.074 342.373L260.173 315.872Z" fill="url(#paint17_radial_0_1)"/>
<path d="M260.173 315.872L234.819 310.994L229.72 337.495L255.074 342.373L260.173 315.872Z" fill="url(#paint18_linear_0_1)"/>
<path d="M272.923 304.151L270.916 314.585C270.575 316.358 268.833 317.538 267.059 317.197L259.777 315.796L257.95 325.29L265.232 326.691C272.119 328.016 278.837 323.466 280.162 316.58L282.001 305.898L272.923 304.151Z" fill="url(#paint19_radial_0_1)"/>
<path d="M234.819 310.994L227.307 309.548C225.533 309.207 224.354 307.465 224.695 305.692L226.702 295.258L217.416 293.471L215.409 303.905C214.084 310.791 218.634 317.509 225.52 318.834L233.033 320.28L234.819 310.994Z" fill="url(#paint20_radial_0_1)"/>
<path d="M276.014 302.149C278.1 302.55 279.449 304.541 279.047 306.628L278.987 306.941C278.585 309.027 276.595 310.376 274.508 309.974C272.421 309.573 271.073 307.582 271.475 305.495L271.535 305.182C271.936 303.096 273.927 301.747 276.014 302.149ZM277.66 293.593C270.878 292.288 264.284 296.754 262.979 303.536L262.919 303.849C261.614 310.631 266.08 317.225 272.862 318.53C279.644 319.835 286.238 315.369 287.542 308.587L287.603 308.274C288.907 301.492 284.442 294.898 277.66 293.593Z" fill="url(#paint21_radial_0_1)"/>
<path d="M220.507 291.469C222.593 291.871 223.942 293.861 223.54 295.948L223.48 296.261C223.078 298.348 221.088 299.696 219.001 299.294C216.914 298.893 215.566 296.902 215.968 294.816L216.028 294.503C216.429 292.416 218.42 291.068 220.507 291.469ZM222.153 282.914C215.371 281.609 208.777 286.075 207.472 292.856L207.412 293.169C206.107 299.951 210.573 306.545 217.355 307.85C224.137 309.155 230.731 304.689 232.035 297.907L232.096 297.594C233.401 290.812 228.935 284.218 222.153 282.914Z" fill="url(#paint22_radial_0_1)"/>
<path d="M274.327 310.913C273.793 310.81 273.284 310.603 272.83 310.304C272.375 310.004 271.984 309.618 271.679 309.168C271.374 308.717 271.161 308.211 271.051 307.678C270.942 307.145 270.938 306.595 271.041 306.061L271.463 303.87L279.705 305.456L279.284 307.647C278.758 309.818 276.623 311.355 274.327 310.913Z" fill="url(#paint23_radial_0_1)"/>
<path d="M218.716 300.213L218.507 300.173C217.456 299.971 216.528 299.359 215.927 298.472C215.327 297.586 215.103 296.497 215.305 295.445L215.727 293.254L223.97 294.84L223.548 297.031C223.126 299.222 221.011 300.655 218.716 300.213Z" fill="url(#paint24_radial_0_1)"/>
<path d="M231.728 327.062L234.839 310.889L230.875 310.127L228.526 322.334C228.104 324.525 229.537 326.64 231.728 327.062Z" fill="#57377A"/>
<path d="M257.081 331.94L260.193 315.768L256.228 315.005L253.88 327.212C253.458 329.403 254.89 331.518 257.081 331.94Z" fill="#614484"/>
<path d="M246.42 318.744L244.542 318.383C243.377 318.158 242.268 317.707 241.278 317.054C240.288 316.402 239.436 315.56 238.771 314.578C238.106 313.596 237.641 312.493 237.402 311.331C237.163 310.17 237.156 308.972 237.38 307.808L238.665 301.13L260.158 305.265L259.214 310.169C258.09 316.012 252.367 319.888 246.42 318.744Z" fill="url(#paint25_radial_0_1)"/>
<path d="M254.593 290.886L247.29 289.481C242.803 288.618 238.553 291.587 237.69 296.074L237.349 297.847C237.188 298.682 237.694 299.429 238.528 299.589L245.414 300.914L244.752 304.357C244.31 306.653 245.743 308.768 248.038 309.209L256.698 310.875C258.055 311.136 259.299 310.294 259.56 308.937L261.146 300.695C261.945 295.98 259.08 291.75 254.593 290.886Z" fill="url(#paint26_radial_0_1)"/>
<path d="M260.021 306.538L251.779 304.952L251.297 307.456L259.54 309.042L260.021 306.538Z" fill="url(#paint27_linear_0_1)"/>
<path d="M257.361 304.619C257.748 304.694 258.15 304.611 258.476 304.39C258.803 304.169 259.028 303.827 259.103 303.439C259.177 303.052 259.095 302.651 258.874 302.324C258.652 301.998 258.31 301.772 257.923 301.698C257.536 301.623 257.135 301.706 256.808 301.927C256.481 302.148 256.256 302.49 256.181 302.877C256.107 303.265 256.189 303.666 256.41 303.993C256.632 304.319 256.974 304.545 257.361 304.619Z" fill="url(#paint28_linear_0_1)"/>
<path fill-rule="evenodd" clip-rule="evenodd" d="M240.124 299.788L250.109 301.709C250.695 301.821 251.246 302.069 251.719 302.433C252.192 302.796 252.574 303.265 252.833 303.802L253.355 303.902C253.651 304.404 253.842 304.961 253.916 305.539C253.991 306.117 253.948 306.704 253.79 307.265C253.269 309.859 250.468 311.148 247.838 310.642L245.825 310.255C245.092 310.082 244.399 309.772 243.782 309.342C243.341 309.027 242.848 308.793 242.325 308.651C241.775 308.588 241.218 308.624 240.681 308.757C239.963 308.924 239.219 308.953 238.49 308.844L238.385 308.823C237.992 308.751 237.608 308.637 237.239 308.484C237.265 308.155 237.31 307.828 237.373 307.503L237.468 307.013C236.748 306.617 236.171 306.003 235.82 305.259C235.47 304.516 235.363 303.68 235.516 302.872C235.924 300.754 237.985 299.376 240.124 299.788Z" fill="#2239A0"/>
<path d="M250.443 301.773L240.218 299.806C239.166 299.604 238.077 299.827 237.191 300.428C236.304 301.028 235.692 301.956 235.49 303.008C235.288 304.059 235.512 305.148 236.112 306.035C236.712 306.922 237.641 307.533 238.692 307.736L238.796 307.756C239.84 307.956 240.899 307.511 241.393 306.632L241.722 306.046C241.873 305.819 242.087 305.641 242.338 305.536C242.59 305.43 242.867 305.401 243.135 305.453C243.402 305.504 243.649 305.634 243.843 305.825C244.037 306.017 244.171 306.261 244.226 306.528L244.314 307.194C244.551 308.214 245.37 309.02 246.309 309.201L248.708 309.663C250.899 310.084 253.014 308.652 253.436 306.461C254.046 304.414 252.634 302.195 250.443 301.773Z" fill="#9DE0FF"/>
<path fill-rule="evenodd" clip-rule="evenodd" d="M234.551 302.827C235.073 300.114 237.686 298.345 240.399 298.867L250.623 300.834C253.315 301.352 255.117 304.079 254.367 306.683C254.107 307.974 253.348 309.111 252.254 309.844C251.16 310.578 249.821 310.851 248.528 310.602L246.128 310.14C245.46 309.992 244.847 309.658 244.361 309.176C243.875 308.693 243.537 308.083 243.385 307.416L243.359 307.324L243.286 306.693C243.265 306.616 243.223 306.546 243.165 306.492C243.106 306.438 243.034 306.401 242.955 306.386C242.877 306.371 242.796 306.378 242.721 306.407C242.647 306.436 242.582 306.485 242.534 306.549L242.224 307.095C241.865 307.705 241.324 308.187 240.677 308.474C240.03 308.761 239.309 308.838 238.616 308.695L238.511 308.674C237.211 308.424 236.063 307.668 235.32 306.571C234.578 305.474 234.301 304.128 234.551 302.827ZM240.037 300.745C239.64 300.668 239.231 300.671 238.835 300.752C238.439 300.834 238.062 300.993 237.727 301.219C237.392 301.446 237.105 301.737 236.882 302.075C236.66 302.413 236.506 302.791 236.429 303.189C236.353 303.586 236.355 303.994 236.437 304.391C236.518 304.787 236.677 305.164 236.904 305.499C237.131 305.834 237.421 306.121 237.759 306.343C238.097 306.566 238.475 306.72 238.873 306.796L238.977 306.817C239.666 306.949 240.289 306.636 240.562 306.169L240.912 305.533C241.166 305.146 241.529 304.842 241.956 304.661C242.383 304.481 242.854 304.431 243.309 304.519C243.764 304.606 244.183 304.827 244.512 305.153C244.842 305.479 245.067 305.896 245.158 306.35L245.169 306.407L245.257 307.019C245.33 307.318 245.484 307.592 245.701 307.811C245.918 308.03 246.191 308.186 246.489 308.262L248.889 308.724C250.558 309.045 252.176 307.949 252.497 306.28L252.515 306.186C252.948 304.722 251.932 303.033 250.262 302.712L240.037 300.745Z" fill="#C3B8D1"/>
<path d="M255.957 337.782L230.604 332.904L229.584 338.205L254.937 343.083L255.957 337.782Z" fill="#E04B3C"/>
<path d="M255.957 337.782L230.604 332.904L229.72 337.495L255.074 342.373L255.957 337.782Z" fill="url(#paint29_linear_0_1)"/>
<path d="M387.502 177.64C387.502 177.64 382.231 157.799 362.669 147.002C343.985 136.699 323.944 140.2 323.944 140.2C323.775 139.952 323.711 139.723 323.543 139.474C306.948 107.067 264.274 98.8568 236.839 122.792C236.59 122.96 236.342 123.129 236.197 123.318C236.197 123.318 218.886 112.629 197.713 115.264C175.541 118.031 163.284 134.499 163.284 134.499C163.284 134.499 125.341 134.881 120.806 173.068C119.811 178.207 119.838 183.492 120.888 188.62C121.938 193.748 123.99 198.618 126.925 202.952C129.86 207.286 133.622 210.998 137.994 213.876C142.366 216.753 147.263 218.74 152.405 219.722C159.082 221.007 166.081 220.623 172.939 218.155C189.67 212.177 224.01 203.528 264.721 211.253C305.413 219.082 334.072 239.961 347.514 251.636C355.454 258.55 365.814 262.031 376.319 261.314C386.823 260.596 396.614 255.739 403.54 247.808C408.376 242.355 411.35 235.895 412.655 229.113C422.491 192.053 387.502 177.64 387.502 177.64Z" fill="url(#paint30_radial_0_1)"/>
<path d="M186.605 117.887C171.475 123.416 163.179 134.479 163.179 134.479C163.179 134.479 125.236 134.861 120.702 173.048C119.706 178.187 119.734 183.472 120.784 188.599C121.834 193.727 123.885 198.598 126.821 202.932C129.756 207.266 133.517 210.978 137.89 213.855C142.262 216.733 147.159 218.72 152.3 219.702C158.978 220.987 165.976 220.602 172.835 218.135C182.23 214.857 197.203 210.705 215.61 208.945L186.605 117.887Z" fill="url(#paint31_radial_0_1)"/>
<path d="M197.609 115.244C179.767 117.437 168.304 128.649 164.584 132.802L163.199 134.375L202.536 210.541C211.256 209.081 221.169 208.175 231.775 208.16L236.197 123.318C236.197 123.318 218.886 112.629 197.609 115.244Z" fill="url(#paint32_radial_0_1)"/>
<path d="M403.54 247.808C408.376 242.355 411.35 235.895 412.655 229.113C422.615 191.969 387.522 177.535 387.522 177.535C387.522 177.535 386.881 175.248 385.356 171.925L315.994 229.882C330.095 237.572 340.741 245.788 347.494 251.74C363.998 266.06 389.096 264.397 403.54 247.808Z" fill="url(#paint33_radial_0_1)"/>
<path d="M362.565 146.982C378.423 155.659 384.907 170.324 386.8 175.665L387.503 177.64L322.711 233.771C315.155 229.18 306.287 224.66 296.443 220.711L323.84 140.18C323.84 140.18 343.881 136.679 362.565 146.982Z" fill="url(#paint34_radial_0_1)"/>
<path d="M280.166 298.674C278.799 297.74 281.816 299.099 285.295 300.808C288.777 302.505 290.173 300.199 291.18 301.94C292.045 303.405 290.024 303.167 288.069 306.189C286.509 308.615 286.881 309.833 282.026 313.076C282.714 311.694 284.901 308.479 284.667 305.534C284.421 302.598 283.316 300.805 280.166 298.674Z" fill="url(#paint35_radial_0_1)"/>
<path d="M209.055 296.721C209.052 292.576 209.461 290.902 211.714 288.187C213.968 285.472 217.87 285.152 214.035 284.673C210.159 284.685 210.381 282.52 208.714 283.649C207.308 284.602 208.456 285.439 208.22 289.029C208.023 291.74 207.07 292.195 209.055 296.721Z" fill="url(#paint36_radial_0_1)"/>
</g>
</g>
</g>
<defs>
<filter id="filter0_d_0_1" x="115.975" y="108.984" width="302.459" height="301.878" filterUnits="userSpaceOnUse" color-interpolation-filters="sRGB">
<feFlood flood-opacity="0" result="BackgroundImageFix"/>
<feColorMatrix in="SourceAlpha" type="matrix" values="0 0 0 0 0 0 0 0 0 0 0 0 0 0 0 0 0 0 127 0" result="hardAlpha"/>
<feOffset dy="4"/>
<feGaussianBlur stdDeviation="2"/>
<feComposite in2="hardAlpha" operator="out"/>
<feColorMatrix type="matrix" values="0 0 0 0 0 0 0 0 0 0 0 0 0 0 0 0 0 0 0.25 0"/>
<feBlend mode="normal" in2="BackgroundImageFix" result="effect1_dropShadow_0_1"/>
<feBlend mode="normal" in="SourceGraphic" in2="effect1_dropShadow_0_1" result="shape"/>
</filter>
<linearGradient id="paint0_linear_0_1" x1="288.946" y1="257.993" x2="280.39" y2="256.346" gradientUnits="userSpaceOnUse">
<stop stop-color="#C2BCC9"/>
<stop offset="0.243" stop-color="#C7BCD4"/>
<stop offset="0.753" stop-color="#A698BB"/>
<stop offset="0.972" stop-color="#938BA1"/>
</linearGradient>
<linearGradient id="paint1_linear_0_1" x1="296.223" y1="220.171" x2="285.473" y2="229.928" gradientUnits="userSpaceOnUse">
<stop stop-color="#6C6294"/>
<stop offset="1" stop-color="#6D6294" stop-opacity="0"/>
</linearGradient>
<linearGradient id="paint2_linear_0_1" x1="232.373" y1="252.853" x2="223.817" y2="251.207" gradientUnits="userSpaceOnUse">
<stop stop-color="#B1AEB7"/>
<stop offset="0.472" stop-color="#B4A8C1"/>
<stop offset="1" stop-color="#948399"/>
</linearGradient>
<linearGradient id="paint3_linear_0_1" x1="237.255" y1="204.421" x2="237.769" y2="224.807" gradientUnits="userSpaceOnUse">
<stop stop-color="#6C6482"/>
<stop offset="1" stop-color="#6E6684" stop-opacity="0"/>
</linearGradient>
<linearGradient id="paint4_linear_0_1" x1="257.126" y1="251.405" x2="255.504" y2="259.835" gradientUnits="userSpaceOnUse">
<stop stop-color="#A1A2AA"/>
<stop offset="0.389" stop-color="#B6ABC2"/>
<stop offset="0.733" stop-color="#AF97C7"/>
<stop offset="1" stop-color="#946FB5"/>
</linearGradient>
<linearGradient id="paint5_linear_0_1" x1="264.082" y1="334.358" x2="254.859" y2="332.583" gradientUnits="userSpaceOnUse">
<stop stop-color="#695383"/>
<stop offset="0.347" stop-color="#6D5588"/>
<stop offset="0.628" stop-color="#614178"/>
</linearGradient>
<linearGradient id="paint6_linear_0_1" x1="251.855" y1="384.243" x2="244.712" y2="400.278" gradientUnits="userSpaceOnUse">
<stop stop-color="#715B88"/>
<stop offset="1" stop-color="#46335F"/>
</linearGradient>
<radialGradient id="paint7_radial_0_1" cx="0" cy="0" r="1" gradientUnits="userSpaceOnUse" gradientTransform="translate(251.045 389.746) rotate(160.327) scale(12.2429 6.05089)">
<stop stop-color="#755F90"/>
<stop offset="1" stop-color="#624384" stop-opacity="0"/>
</radialGradient>
<linearGradient id="paint8_linear_0_1" x1="207.545" y1="371.996" x2="222.194" y2="374.815" gradientUnits="userSpaceOnUse">
<stop stop-color="#57446B"/>
<stop offset="1" stop-color="#614283"/>
</linearGradient>
<linearGradient id="paint9_linear_0_1" x1="192.952" y1="255.406" x2="181.877" y2="263.76" gradientUnits="userSpaceOnUse">
<stop offset="0.118" stop-color="#ADA9AD"/>
<stop offset="0.285" stop-color="#BAB1C2"/>
<stop offset="0.571" stop-color="#9985AD"/>
<stop offset="1" stop-color="#896FA1"/>
</linearGradient>
<linearGradient id="paint10_linear_0_1" x1="315.387" y1="282.015" x2="321.707" y2="292.698" gradientUnits="userSpaceOnUse">
<stop stop-color="#ABA5B3"/>
<stop offset="0.395" stop-color="#CAB9DD"/>
<stop offset="1" stop-color="#BCA4D2"/>
</linearGradient>
<linearGradient id="paint11_linear_0_1" x1="219.492" y1="370.075" x2="216.799" y2="370.909" gradientUnits="userSpaceOnUse">
<stop stop-color="#6F5787"/>
<stop offset="1" stop-color="#6F5686" stop-opacity="0"/>
</linearGradient>
<linearGradient id="paint12_linear_0_1" x1="252.548" y1="345.49" x2="248.302" y2="344.673" gradientUnits="userSpaceOnUse">
<stop stop-color="#FF904D"/>
<stop offset="1" stop-color="#FF8E4B" stop-opacity="0"/>
</linearGradient>
<radialGradient id="paint13_radial_0_1" cx="0" cy="0" r="1" gradientUnits="userSpaceOnUse" gradientTransform="translate(226.462 349.257) rotate(101.845) scale(4.98116 16.4306)">
<stop stop-color="#E64A57"/>
<stop offset="1" stop-color="#E64A56" stop-opacity="0"/>
</radialGradient>
<radialGradient id="paint14_radial_0_1" cx="0" cy="0" r="1" gradientUnits="userSpaceOnUse" gradientTransform="translate(214.814 355.304) rotate(77.4621) scale(10.8559 3.08159)">
<stop stop-color="#FF9264"/>
<stop offset="1" stop-color="#FF9262" stop-opacity="0"/>
</radialGradient>
<radialGradient id="paint15_radial_0_1" cx="0" cy="0" r="1" gradientUnits="userSpaceOnUse" gradientTransform="translate(241.638 376.273) rotate(61.0365) scale(10.5965 3.16227)">
<stop stop-color="#FF9161"/>
<stop offset="1" stop-color="#FF9166" stop-opacity="0"/>
</radialGradient>
<radialGradient id="paint16_radial_0_1" cx="0" cy="0" r="1" gradientUnits="userSpaceOnUse" gradientTransform="translate(223.605 341.274) rotate(10.8908) scale(20.0879 5.53839)">
<stop stop-color="#FF7E3F"/>
<stop offset="1" stop-color="#FF8C4F" stop-opacity="0"/>
</radialGradient>
<radialGradient id="paint17_radial_0_1" cx="0" cy="0" r="1" gradientUnits="userSpaceOnUse" gradientTransform="translate(242.263 311.052) rotate(132.286) scale(13.2253 13.9488)">
<stop offset="0.257" stop-color="#923B1A"/>
<stop offset="0.32" stop-color="#B14A29"/>
<stop offset="0.798" stop-color="#B44A29" stop-opacity="0"/>
</radialGradient>
<linearGradient id="paint18_linear_0_1" x1="256.287" y1="336.071" x2="248.065" y2="334.49" gradientUnits="userSpaceOnUse">
<stop stop-color="#FF904D"/>
<stop offset="1" stop-color="#FF904D" stop-opacity="0"/>
</linearGradient>
<radialGradient id="paint19_radial_0_1" cx="0" cy="0" r="1" gradientUnits="userSpaceOnUse" gradientTransform="translate(267.542 316.77) rotate(81.9446) scale(11.7602 19.7929)">
<stop offset="0.071" stop-color="#C5653A"/>
<stop offset="0.181" stop-color="#DC6C30"/>
<stop offset="0.467" stop-color="#FF813E"/>
<stop offset="0.873" stop-color="#DB544C"/>
</radialGradient>
<radialGradient id="paint20_radial_0_1" cx="0" cy="0" r="1" gradientUnits="userSpaceOnUse" gradientTransform="translate(227.76 307.363) rotate(113.351) scale(11.9694 12.4638)">
<stop offset="0.181" stop-color="#C5653A"/>
<stop offset="0.337" stop-color="#DC6C30"/>
<stop offset="0.613" stop-color="#EB7C4D"/>
<stop offset="1" stop-color="#DB544C"/>
</radialGradient>
<radialGradient id="paint21_radial_0_1" cx="0" cy="0" r="1" gradientUnits="userSpaceOnUse" gradientTransform="translate(275.261 306.061) rotate(100.891) scale(16.6153 16.4067)">
<stop offset="0.253" stop-color="#9984AD"/>
<stop offset="0.561" stop-color="#D2CBD9"/>
<stop offset="1" stop-color="#7F76A6"/>
</radialGradient>
<radialGradient id="paint22_radial_0_1" cx="0" cy="0" r="1" gradientUnits="userSpaceOnUse" gradientTransform="translate(219.754 295.382) rotate(100.891) scale(16.6153 16.4067)">
<stop offset="0.253" stop-color="#8A84AD"/>
<stop offset="0.561" stop-color="#D2CBD9"/>
<stop offset="1" stop-color="#7F76A6"/>
</radialGradient>
<radialGradient id="paint23_radial_0_1" cx="0" cy="0" r="1" gradientUnits="userSpaceOnUse" gradientTransform="translate(276.849 310.261) rotate(-118.545) scale(6.79522 9.07045)">
<stop stop-color="#A34923"/>
<stop offset="1" stop-color="#BE6438"/>
</radialGradient>
<radialGradient id="paint24_radial_0_1" cx="0" cy="0" r="1" gradientUnits="userSpaceOnUse" gradientTransform="translate(221.152 299.549) rotate(-119.018) scale(6.72786 9.00862)">
<stop stop-color="#A34923"/>
<stop offset="1" stop-color="#BE6438"/>
</radialGradient>
<radialGradient id="paint25_radial_0_1" cx="0" cy="0" r="1" gradientUnits="userSpaceOnUse" gradientTransform="translate(251.181 306.008) rotate(124.09) scale(20.2294)">
<stop stop-color="#3A88E1"/>
<stop offset="0.435" stop-color="#3A70D8"/>
<stop offset="0.76" stop-color="#3C5ECB"/>
</radialGradient>
<radialGradient id="paint26_radial_0_1" cx="0" cy="0" r="1" gradientUnits="userSpaceOnUse" gradientTransform="translate(254.07 296.25) rotate(100.891) scale(9.96093 17.2526)">
<stop stop-color="#649FEB"/>
<stop offset="1" stop-color="#3163A4"/>
</radialGradient>
<linearGradient id="paint27_linear_0_1" x1="253.935" y1="306.622" x2="259.705" y2="307.732" gradientUnits="userSpaceOnUse">
<stop stop-color="#6B5288"/>
<stop offset="0.994" stop-color="#4E3567"/>
</linearGradient>
<linearGradient id="paint28_linear_0_1" x1="256.37" y1="300.999" x2="259.231" y2="306.147" gradientUnits="userSpaceOnUse">
<stop stop-color="#1C75BA"/>
<stop offset="1" stop-color="#1C75BA" stop-opacity="0"/>
</linearGradient>
<linearGradient id="paint29_linear_0_1" x1="230.106" y1="337.569" x2="255.074" y2="342.373" gradientUnits="userSpaceOnUse">
<stop stop-color="#726383"/>
<stop offset="0.041" stop-color="#583979"/>
<stop offset="1" stop-color="#70588D"/>
</linearGradient>
<radialGradient id="paint30_radial_0_1" cx="0" cy="0" r="1" gradientUnits="userSpaceOnUse" gradientTransform="translate(312.523 124.243) rotate(133.729) scale(111.44 111.44)">
<stop offset="0.197" stop-color="#6DFFAC"/>
<stop offset="0.571" stop-color="#42C88B"/>
<stop offset="0.924" stop-color="#389079"/>
</radialGradient>
<radialGradient id="paint31_radial_0_1" cx="0" cy="0" r="1" gradientUnits="userSpaceOnUse" gradientTransform="translate(192.861 173.296) rotate(129.618) scale(67.7001 149.286)">
<stop offset="0.027" stop-color="#F99D2A"/>
<stop offset="0.303" stop-color="#FFD659"/>
<stop offset="0.534" stop-color="#FFBD44"/>
<stop offset="0.762" stop-color="#F39446"/>
<stop offset="0.996" stop-color="#DB7545"/>
</radialGradient>
<radialGradient id="paint32_radial_0_1" cx="0" cy="0" r="1" gradientUnits="userSpaceOnUse" gradientTransform="translate(212.237 141.115) rotate(85.9467) scale(96.5668 49.1148)">
<stop stop-color="#FF627C"/>
<stop offset="0.436" stop-color="#EB295B"/>
<stop offset="0.738" stop-color="#D33242"/>
</radialGradient>
<radialGradient id="paint33_radial_0_1" cx="0" cy="0" r="1" gradientUnits="userSpaceOnUse" gradientTransform="translate(400.689 210.855) rotate(118.951) scale(64.2598 107.546)">
<stop stop-color="#FFEF6B"/>
<stop offset="0.698" stop-color="#F89D47"/>
<stop offset="1" stop-color="#E27751"/>
</radialGradient>
<radialGradient id="paint34_radial_0_1" cx="0" cy="0" r="1" gradientUnits="userSpaceOnUse" gradientTransform="translate(359.902 173.249) rotate(129.683) scale(75.8339 68.6556)">
<stop stop-color="#68C6FF"/>
<stop offset="0.466" stop-color="#349BF6"/>
<stop offset="1" stop-color="#1C75BA"/>
</radialGradient>
<radialGradient id="paint35_radial_0_1" cx="0" cy="0" r="1" gradientUnits="userSpaceOnUse" gradientTransform="translate(286.475 304.01) rotate(79.7101) scale(7.12173 5.45444)">
<stop stop-color="#E1DAE8"/>
<stop offset="0.218" stop-color="#E1DAE8"/>
<stop offset="0.622" stop-color="#E1D9E8" stop-opacity="0"/>
</radialGradient>
<radialGradient id="paint36_radial_0_1" cx="0" cy="0" r="1" gradientUnits="userSpaceOnUse" gradientTransform="translate(211.295 286.375) rotate(114.025) scale(7.67142 5.87525)">
<stop stop-color="#9A8F9E"/>
<stop offset="0.218" stop-color="#A395B0"/>
<stop offset="0.704" stop-color="#A898B8" stop-opacity="0"/>
</radialGradient>
<clipPath id="clip0_0_1">
<rect width="512" height="512" fill="white"/>
</clipPath>
<clipPath id="clip1_0_1">
<rect width="340" height="340" fill="white" transform="translate(121.239 57) rotate(10.8908)"/>
</clipPath>
</defs>
</svg>
